<?xml version="1.0" encoding="UTF-8" standalone="no"?>
<svg
   version="1.1"
   x="0px"
   y="0px"
   viewBox="0 0 100 100"
   enable-background="new 0 0 100 100"
   xml:space="preserve"
   id="svg14"
   sodipodi:docname="history.svg"
   width="100"
   height="100"
   inkscape:version="1.1 (c68e22c387, 2021-05-23)"
   xmlns:inkscape="http://www.inkscape.org/namespaces/inkscape"
   xmlns:sodipodi="http://sodipodi.sourceforge.net/DTD/sodipodi-0.dtd"
   xmlns="http://www.w3.org/2000/svg"
   xmlns:svg="http://www.w3.org/2000/svg"><defs
     id="defs18" /><sodipodi:namedview
     id="namedview16"
     pagecolor="#ffffff"
     bordercolor="#666666"
     borderopacity="1.0"
     inkscape:pageshadow="2"
     inkscape:pageopacity="0.0"
     inkscape:pagecheckerboard="0"
     showgrid="false"
     fit-margin-top="0"
     fit-margin-left="0"
     fit-margin-right="0"
     fit-margin-bottom="0"
     inkscape:zoom="6.656"
     inkscape:cx="49.954928"
     inkscape:cy="38.536659"
     inkscape:window-width="1920"
     inkscape:window-height="1017"
     inkscape:window-x="-8"
     inkscape:window-y="-8"
     inkscape:window-maximized="1"
     inkscape:current-layer="svg14" /><rect
     x="0"
     y="0"
     fill="none"
     width="100"
     height="100"
     id="rect2" /><g
     id="g8"><path
       d="M 51.942,2.039 C 38.349,1.505 25.538,6.593 16.134,15.991 16.155,14.362 16.178,12.703 16.202,11.084 16.239,8.546 14.212,6.457 11.673,6.42 9.131,6.358 7.047,8.41 7.01,10.949 c 0,0 -0.068,4.605 -0.122,9.225 -0.131,11.14 -0.131,11.14 1.282,12.573 v 0 c 0.864,0.877 2.045,1.371 3.276,1.371 h 19.4 c 2.401,0 4.545,-1.755 4.773,-4.145 0.262,-2.742 -1.887,-5.049 -4.575,-5.049 H 20.399 C 28.151,15.767 39.519,10.727 51.652,11.229 71.312,12.042 87.471,27.831 88.725,47.468 90.164,70.006 72.236,88.806 50,88.806 28.657,88.806 11.283,71.487 11.194,50.165 11.184,47.792 9.45,45.676 7.09,45.43 4.33,45.142 2,47.299 2,50 2,76.467 23.533,98 50,98 76.994,98 98.855,75.602 97.974,48.415 97.166,23.455 76.896,3.019 51.942,2.039 Z"
       id="path4" /><path
       d="m 49.013,25.342 c -2.539,0 -4.597,2.058 -4.597,4.597 v 20.059 c 0,2.111 1.685,5.773 6.686,5.851 h 17.552 c 2.539,0 4.597,-2.058 4.597,-4.597 0,-2.538 -2.058,-4.597 -4.597,-4.597 H 53.61 V 29.939 c 0,-2.539 -2.058,-4.597 -4.597,-4.597 z"
       id="path6" /></g></svg>
